<svg height="512" viewBox="0 0 128 128" width="512" xmlns="http://www.w3.org/2000/svg"><g><g><path d="m73.25 113.333h-18.5l4.75-27.875h9z" fill="#67b5bc"/><path d="m6.5 6.5h115v84.529h-115z" fill="#79d5dd"/><path d="m30.735-5.735h66.529v103h-66.529z" fill="#08B1C7" transform="matrix(0 1 -1 0 109.765 -18.235)"/><path d="m71.9 109.5h-15.8a12 12 0 0 0 -12 12h39.8a12 12 0 0 0 -12-12z" fill="#79d5dd"/><circle cx="64.021" cy="40.751" fill="#d85134" r="20.099"/><path d="m94.142 60.146-8.45 2.275-2.282 8.457-9.315-20.053z" fill="#f4d844"/></g><g fill="#0f1336"><g><path d="m111.25 38.333v-10.909a1.75 1.75 0 0 0 -3.5 0v10.909a1.75 1.75 0 0 0 3.5 0z"/><path d="m65.557 38.943v-6.016a10.46 10.46 0 0 1 4.544 2.4l2.176-2.944a11.9 11.9 0 0 0 -6.72-2.975v-1.984h-2.912v1.951c-3.936.48-6.592 3.136-6.592 6.592 0 3.775 2.656 5.184 6.592 6.208v6.239a10.948 10.948 0 0 1 -5.152-2.752l-2.3 2.848a13.111 13.111 0 0 0 7.455 3.424v2.143h2.912v-2.047c4.64-.32 7.3-3.008 7.3-6.688-.008-3.904-2.919-5.408-7.303-6.399zm-2.912-.768c-1.728-.608-2.56-1.28-2.56-2.56a3.021 3.021 0 0 1 2.56-2.752zm2.912 10.431v-5.7c2.271.672 3.3 1.344 3.3 2.816-.004 1.412-1.124 2.628-3.3 2.884z"/><path d="m64.02 18.9a21.85 21.85 0 1 0 11.952 40.12l5.851 12.595a1.75 1.75 0 0 0 1.586 1.013c.05 0 .1 0 .151-.006a1.751 1.751 0 0 0 1.54-1.289l2.019-7.483 7.481-2.014a1.751 1.751 0 0 0 .283-3.277l-12.589-5.852a21.833 21.833 0 0 0 -18.274-33.807zm21.216 41.831a1.753 1.753 0 0 0 -1.236 1.235l-1.029 3.816-5.271-11.351 11.346 5.275zm-10.4-11.493a1.75 1.75 0 0 0 -2.325 2.324l1.973 4.248a18.339 18.339 0 1 1 7.886-15.06 18.1 18.1 0 0 1 -3.284 10.466z"/><path d="m121.5 4.75h-25.375a1.75 1.75 0 0 0 0 3.5h23.625v81.029h-111.5v-81.029h69.562a1.75 1.75 0 0 0 0-3.5h-71.312a1.75 1.75 0 0 0 -1.75 1.75v84.529a1.749 1.749 0 0 0 1.75 1.75h49.976l-2.576 15.163a13.637 13.637 0 0 0 -3.273.941 1.75 1.75 0 1 0 1.4 3.21 10.187 10.187 0 0 1 4.079-.843h15.794a10.267 10.267 0 0 1 10.1 8.5h-36.007a10.085 10.085 0 0 1 .951-2.872 1.75 1.75 0 0 0 -3.123-1.581 13.615 13.615 0 0 0 -1.475 6.2 1.75 1.75 0 0 0 1.75 1.75h39.804a1.75 1.75 0 0 0 1.75-1.75 13.76 13.76 0 0 0 -11.549-13.557l-2.577-15.161h49.976a1.749 1.749 0 0 0 1.75-1.75v-84.529a1.75 1.75 0 0 0 -1.75-1.75zm-64.021 103 2.549-14.971h7.944l2.549 14.971z"/><path d="m12.5 71.25a1.749 1.749 0 0 0 -1.75 1.75v6.029a1.749 1.749 0 0 0 1.75 1.75h103a1.749 1.749 0 0 0 1.75-1.75v-66.529a1.75 1.75 0 0 0 -1.75-1.75h-103a1.75 1.75 0 0 0 -1.75 1.75v49.75a1.75 1.75 0 0 0 3.5 0v-48h99.5v63.029h-99.5v-4.279a1.749 1.749 0 0 0 -1.75-1.75z"/></g><path d="m84.813 8.25h4.125a1.75 1.75 0 0 0 0-3.5h-4.125a1.75 1.75 0 0 0 0 3.5z"/></g></g></svg>