<svg id="Capa_1" enable-background="new 0 0 512 512" height="512" viewBox="0 0 512 512" width="512" xmlns="http://www.w3.org/2000/svg"><g><g><g clip-rule="evenodd" fill-rule="evenodd"><path d="m124.25 308.501h29.999l22.501-22.5v-52.5h-75v52.5z" fill="#fbf2e2"/><path d="m101.75 233.501h75v-15c0-8.249-6.75-15-15-15h-60z" fill="#adb9c8"/><path d="m221.749 406.001v-75l-67.5-22.5h-29.999l-67.5 22.5v75z" fill="#faef93"/><path d="m455.25 406.001v-75l-33.75-11.25-48.75 37.5-48.749-37.5-33.75 11.25v75z" fill="#e08ea2"/><path d="m324.001 319.751 48.749 37.5 48.75-37.5-33.75-11.25h-30z" fill="#faef93"/><path d="m357.75 308.501h30l22.5-30v-45h-38.498l-36.502 22.5v22.5z" fill="#fbf2e2"/><path d="m395.25 203.501v-15c0-8.25-6.75-15-15-15h-15c-8.25 0-15 6.75-15 15v15c-8.25 0-15 6.751-15 15v37.5l36.501-22.5h38.499v-15c0-8.248-6.75-15-15-15z" fill="#adb9c8"/><path d="m221.749 406.001h68.501v-74.999l67.5-22.5-22.5-30v-60c0-8.249 6.75-15 15-15v-15c0-8.25 6.75-15 15-15h15.001c8.25 0 15 6.75 15 15v15c8.25 0 15 6.751 15 15v60l-22.5 30 67.5 22.5v74.999h34.25v-300.001h-467v300.001h34.25v-74.999l67.5-22.5-22.5-22.5v-82.499h60c8.25 0 15 6.75 15 15v67.5l-22.5 22.5 67.5 22.5v74.998z" fill="#0398A8"/><path d="m181 106h150l-15-60h-30c0 16.569-13.431 30-30 30s-30-13.431-30-30h-30z" fill="#adb9c8"/><ellipse cx="256" cy="46" fill="#cfdbfa" rx="30" ry="30" transform="matrix(.383 -.924 .924 .383 115.492 264.882)"/><path d="m22.5 436h181l7.5 30h90l7.5-30h181v-29.999h-467z" fill="#adb9c8"/><path d="m22.5 496.001h467c8.25 0 15-6.75 15-15v-45h-196l-7.5 30h-90l-7.5-30h-196v45c0 8.25 6.75 15 15 15z" fill="#adb9c8"/><path d="m263.5 75.055c-29.805-7.671-29.805-50.44 0-58.11-18.84-4.848-37.5 9.339-37.5 29.055 0 19.715 18.66 33.902 37.5 29.055z" fill="#6e91ef"/><path d="m181 106h15l15-60h-15z" fill="#72869e"/><path d="m22.5 106h22.5v300.001h-22.5z" fill="#6e91ef"/><path d="m124.25 308.501h15l-22.5-22.5v-52.5h-15v52.5z" fill="#f7e0ba"/><path d="m101.75 203.501h15v30h-15z" fill="#72869e"/><path d="m71.75 326.001-15 5v75h15z" fill="#f8e868"/><path d="m22.5 406.001h22.5v30h-22.5z" fill="#72869e"/><path d="m22.5 496.001h22.5c-8.25 0-15-6.75-15-15v-45h-22.5v45c0 8.25 6.75 15 15 15z" fill="#72869e"/><path d="m357.75 308.501h15l-22.5-30v-31.746l-15 9.246v22.5z" fill="#f7e0ba"/><path d="m335.25 256.001 15-9.246v-28.254c0-8.249 6.75-15 15-15v-15c0-8.25 6.75-15 15-15h-15c-8.25 0-15 6.75-15 15v15c-8.25 0-15 6.751-15 15z" fill="#72869e"/><path d="m305.251 326.001-15 5v75h15z" fill="#c21d44"/></g><g><path d="m45 473.5h-15v-15h15zm422-270h-15v-45h15zm0-60h-15v-15h15z" fill="#fff"/></g></g><g><path d="m248.5 38.5h15v15h-15z"/><path d="m497 428.5v-330h-160.144l-15.001-60h-29.11c-3.484-17.096-18.635-30-36.745-30s-33.261 12.904-36.745 30h-29.111l-15 60h-160.144v60h15v-45h218.5v285h-19.25v-72.904l-61.116-20.373 16.117-16.117v-70.605c0-12.406-10.093-22.5-22.5-22.5h-67.5v93.105l16.116 16.117-61.117 20.373v72.904h-19.25v-225.001h-15v255.001h-15v52.5c0 12.406 10.094 22.5 22.5 22.5h399.501v-15h-399.501c-4.136 0-7.5-3.364-7.5-7.5v-37.5h182.644l7.499 30h101.712l7.501-30h182.644v37.5c0 4.136-3.364 7.5-7.5 7.5h-52.499v15h52.499c12.406 0 22.5-10.094 22.5-22.5v-52.5zm-241-405c12.406 0 22.5 10.094 22.5 22.5s-10.094 22.5-22.5 22.5c-12.407 0-22.5-10.094-22.5-22.5s10.093-22.5 22.5-22.5zm-54.144 30h17.399c3.484 17.096 18.635 30 36.745 30s33.261-12.904 36.745-30h17.399l11.249 45h-130.787zm61.644 60h218.5v285h-19.251v-72.904l-62.756-20.919 17.757-23.675v-62.5c0-9.778-6.27-18.119-15-21.215v-8.785c0-12.406-10.093-22.5-22.499-22.5h-15.001c-12.406 0-22.5 10.094-22.5 22.5v8.785c-8.73 3.096-15 11.437-15 21.215v62.5l17.757 23.675-62.756 20.919v72.904h-19.251zm146.75 257.23v27.77h-75v-27.77h-15v27.77h-22.499v-62.094l24.838-8.279 50.161 38.585 50.161-38.585 24.838 8.279v62.094h-22.499v-27.77zm-15-159.729c4.136 0 7.5 3.364 7.5 7.5v7.5h-33.124l-26.876 16.566v-24.066c0-4.136 3.364-7.5 7.5-7.5zm-37.5-15v-7.5c0-4.136 3.364-7.5 7.5-7.5h15.001c4.135 0 7.499 3.364 7.499 7.5v7.5zm-15 64.188 31.128-19.188h28.872v35l-18.75 25h-22.499l-18.751-25zm16.219 55.812h27.563l19.216 6.405-32.998 25.382-32.997-25.382zm-197.219-105c4.136 0 7.5 3.364 7.5 7.5v7.5h-60v-15zm-52.5 30h60v41.893l-18.107 18.107h-23.787l-18.106-18.107zm-45 95.406 61.217-20.405h27.565l61.217 20.405v62.093h-22.5v-27.77h-15v27.77h-75v-27.77h-15v27.77h-22.5v-62.093zm230.895 122.093h-78.289l-3.75-15h35.394v-15h-218.5v-15h452v15h-218.5v15h35.394z"/></g></g></svg>