<svg id="Layer_1" enable-background="new 0 0 256 256" height="512" viewBox="0 0 256 256" width="512" xmlns="http://www.w3.org/2000/svg"><path d="m242.002 209.405h-228c-3.314 0-6-2.686-6-6v-158c0-3.314 2.686-6 6-6h228c3.314 0 6 2.686 6 6v158c0 3.314-2.687 6-6 6z" fill="#e0ebfc"/><path d="m20.002 194.405v-140c0-1.657 1.343-3 3-3h210c1.657 0 3 1.343 3 3v140c0 1.657-1.343 3-3 3h-210c-1.657 0-3-1.343-3-3z" fill="#a4c9ff"/><path d="m242.002 211.405h-228c-4.411 0-8-3.589-8-8v-158c0-4.411 3.589-8 8-8h228c4.411 0 8 3.589 8 8v158c0 4.411-3.589 8-8 8zm-228-170c-2.206 0-4 1.794-4 4v158c0 2.206 1.794 4 4 4h228c2.206 0 4-1.794 4-4v-158c0-2.206-1.794-4-4-4z" fill="#3762cc"/><path d="m233.002 199.405h-210c-2.757 0-5-2.243-5-5v-140c0-2.757 2.243-5 5-5h210c2.757 0 5 2.243 5 5v140c0 2.757-2.243 5-5 5zm-210-146c-.552 0-1 .448-1 1v140c0 .552.448 1 1 1h210c.552 0 1-.448 1-1v-140c0-.552-.448-1-1-1z" fill="#3762cc"/><path d="m132.639 159.732v5.964c10.127 0 12.441-.614 12.441 1.839 0 2.487-2.245 1.872-12.441 1.872v6.909c10.833 0 12.249-.342 13.212.538.392.359.589.837.589 1.433 0 .575-.197 1.042-.589 1.401s-.974.538-1.748.538h-13.369c-1.072 0-1.842-.237-2.311-.713-.47-.474-.705-1.242-.705-2.302v-18.257c0-2.145.921-3.016 3.016-3.016 12.445 0 13.803-.333 14.736.522.779.713.76 2.055 0 2.75-.937.855-2.444.522-12.831.522z" fill="#4671c6"/><path d="m163.298 166.723h-10.532c-1.199 0-2.17-.972-2.17-2.17 0-1.199.972-2.17 2.17-2.17h10.532c2.887-.001 2.891 4.34 0 4.34zm0 7.356h-10.532c-1.199 0-2.17-.972-2.17-2.17 0-1.199.972-2.17 2.17-2.17h10.532c2.887-.001 2.891 4.34 0 4.34z" fill="#4671c6"/><path d="m185.752 179.486c-.874.963-2.586 1.026-3.506 0-.893-1-.662-2.029-.662-9.714 0-1.182-.041-2.101-.121-2.755-.08-.655-.299-1.192-.655-1.61-.356-.42-.918-.629-1.688-.629-7.572 0-.398 15.448-6.182 15.448-1.339 0-2.429-.915-2.429-2.962 0-13.116-.757-16.155 2.222-16.155.643 0 1.18.215 1.61.645.644.644.645 1.364.645 2.23 3.122-3.736 8.601-3.919 10.868 0 3.513-4.277 9.291-3.357 10.971.086.402.85.604 2.187.604 4.013 0 8.707.726 12.142-2.446 12.142-1.339 0-2.429-.914-2.429-2.962v-7.906c0-1.01-.043-1.819-.129-2.428-.42-2.968-4.162-2.772-5.485-.121-1.216 2.802.296 11.039-1.188 12.678z" fill="#4671c6"/><path d="m216.727 178.185c-4.254 3.573-15.647 3.264-15.647-7.345 0-8.907 7.754-10.99 12.771-9.232 5.52 1.929 5.961 6.975 2.609 6.975-2.199 0-2.022-3.892-6.028-3.892-5.685 0-6 9.69-1.86 11.599 1.918.885 4.509.565 6.131-2.247.287-.528.596-.942.93-1.241 1.966-1.761 5.526 1.66 1.094 5.383z" fill="#4671c6"/><path d="m224.733 164.398c4.818 0 5.839-.188 6.494.324.551.43.538 1.251.086 1.722-.54.563-1.299.344-8.455.344-1.05 0-1.611-.68-1.611-1.408 0-.538.483-1.503.871-1.915.82-.852 3.002-3.046 3.982-3.709 6.12-4.322-.612-8.456-2.225-3.86-.437 1.254-.89 1.408-1.413 1.408-2.03 0-1.442-3.851 1.657-5.081 5.665-2.249 9.907 3.672 5.375 7.752-1.986 1.785-3.761 2.899-4.761 4.423z" fill="#4671c6"/><path d="m164.834 133.252c-5.066 0-8.71-1.444-10.538-4.176-1.267-1.894-1.608-4.286-1.012-7.111 1.79-8.488 11.73-19.543 25.323-28.164 11.43-7.25 23.546-11.578 32.409-11.578 5.066 0 8.71 1.444 10.538 4.176 1.267 1.894 1.608 4.286 1.012 7.111-1.79 8.488-11.73 19.543-25.323 28.164-11.43 7.25-23.545 11.578-32.407 11.578-.001 0-.002 0-.002 0zm46.095-47.737c-8.218 0-19.624 4.122-30.509 11.026-14.61 9.266-22.484 19.737-23.805 26.004-.414 1.961-.231 3.542.542 4.697 1.173 1.753 3.93 2.719 7.763 2.719 8.218 0 19.624-4.122 30.509-11.026 14.61-9.267 22.484-19.738 23.806-26.004.414-1.961.231-3.542-.542-4.697-1.174-1.754-3.931-2.719-7.764-2.719z" fill="#e0ebfc"/><path d="m211.015 133.252c-20.974-.001-54.188-22.939-57.732-39.742-.596-2.825-.255-5.217 1.012-7.111 1.829-2.732 5.473-4.176 10.538-4.176 8.863 0 20.978 4.328 32.409 11.578 13.593 8.621 23.533 19.676 25.323 28.164.596 2.825.255 5.217-1.012 7.111-1.828 2.732-5.473 4.176-10.538 4.176zm-46.096-47.737c-3.833 0-6.59.966-7.763 2.719-.773 1.155-.956 2.736-.542 4.697 3.142 14.894 34.651 37.03 54.315 37.03 3.833 0 6.59-.965 7.763-2.719.773-1.155.956-2.736.542-4.697-1.322-6.267-9.195-16.738-23.805-26.004-10.886-6.904-22.291-11.026-30.51-11.026z" fill="#e0ebfc"/><circle cx="187.924" cy="108.412" fill="#4671c6" r="7.163"/><path d="m187.924 146.82c-4.614 0-8.928-4.103-12.146-11.552-3.179-7.359-4.93-17.137-4.93-27.531s1.751-20.171 4.93-27.531c3.218-7.449 7.532-11.552 12.146-11.552s8.928 4.103 12.146 11.552c3.179 7.359 4.93 17.136 4.93 27.531s-1.751 20.171-4.93 27.531c-3.218 7.45-7.532 11.552-12.146 11.552zm0-74.817c-3.169 0-6.617 3.685-9.225 9.858-2.912 6.892-4.515 16.082-4.515 25.877s1.604 18.984 4.515 25.877c2.608 6.173 6.057 9.858 9.225 9.858 3.169 0 6.617-3.685 9.225-9.858 2.912-6.893 4.515-16.083 4.515-25.877s-1.604-18.984-4.515-25.877c-2.607-6.173-6.056-9.858-9.225-9.858z" fill="#e0ebfc"/><circle cx="187.924" cy="70.217" fill="#f9a7a7" r="6.14"/><circle cx="221.092" cy="127.502" fill="#eaa97d" r="6.14"/><circle cx="155.942" cy="127.502" fill="#ffea92" r="6.14"/><path d="m130.877 103.356c-8.786-6.326-8.986-6.441-9.944-7.211-3.312-2.627-5.647-5.515-7.333-8.636-2.824-4.354-3.408-9.514-3.845-12.169-9.578 10.305-25.897 17.707-39.345 19.556-.334.052-.524.077-.524.077s-.655.087-1.598.206c-3.694.465-8.183 1.023-14.634.797-15.116-.523-22.828-5.232-25.846-6.574-.531 2.952-.824 5.987-.824 9.09v4.864c-.11-.002-.218-.016-.328-.016-8.753 0-15.848 7.031-15.848 15.706 0 8.674 7.096 15.706 15.848 15.706.575 0 1.141-.034 1.7-.093 5.361 22.774 25.961 39.745 50.575 39.745s45.215-16.971 50.575-39.745c.559.059 1.126.093 1.7.093 8.753 0 15.848-7.032 15.848-15.706-.001-8.8-7.293-15.884-16.177-15.69z" fill="#f9cfcf"/><path d="m78.921 174.402c-8.713 0-16.917-2.135-24.127-5.892v9.605 4.114 8.261h48.227v-8.261-4.114-9.591c-7.203 3.748-15.398 5.878-24.1 5.878z" fill="#f9cfcf"/><g fill="#3762cc"><path d="m103.021 192.489h-48.226c-1.104 0-2-.896-2-2v-21.979c0-.699.365-1.348.963-1.71.599-.363 1.341-.388 1.961-.063 7.112 3.706 15.136 5.665 23.202 5.665 8.174 0 15.972-1.901 23.177-5.652.62-.321 1.364-.297 1.962.064.597.362.962 1.011.962 1.71v21.966c-.001 1.104-.896 1.999-2.001 1.999zm-46.226-4h44.227v-16.782c-6.915 3.079-14.49 4.694-22.101 4.694-7.619 0-15.204-1.62-22.126-4.706z"/><path d="m78.923 152.327c-1.502 0-2.815-.178-4.015-.543-1.991-.606-3.742-1.63-5.063-2.961-1.685-1.696-2.612-3.839-2.612-6.032 0-1.104.896-2 2-2s2 .896 2 2c0 1.146.502 2.259 1.451 3.215.856.863 2.028 1.538 3.389 1.952.816.248 1.748.369 2.85.369s2.033-.121 2.849-.369c1.362-.415 2.534-1.09 3.39-1.951.95-.957 1.452-2.069 1.452-3.216 0-1.104.896-2 2-2s2 .896 2 2c0 2.193-.928 4.336-2.613 6.033-1.319 1.33-3.07 2.354-5.063 2.96-1.199.365-2.512.543-4.015.543z"/><path d="m53.232 131.618c-3.458 0-6.271-2.813-6.271-6.27v-10.451c0-3.458 2.813-6.271 6.271-6.271 3.457 0 6.27 2.813 6.27 6.271v10.451c.001 3.457-2.813 6.27-6.27 6.27z"/><path d="m104.615 131.618c-3.458 0-6.271-2.813-6.271-6.27v-10.451c0-3.458 2.813-6.271 6.271-6.271 3.457 0 6.27 2.813 6.27 6.271v10.451c0 3.457-2.813 6.27-6.27 6.27z"/><path d="m57.169 136.185h-7.861c-9.043 0-16.399-7.357-16.399-16.4v-14.399c0-1.104.896-2 2-2h36.66c1.104 0 2 .896 2 2v14.399c-.001 9.042-7.357 16.4-16.4 16.4zm-20.261-28.8v12.399c0 6.838 5.563 12.4 12.399 12.4h7.861c6.837 0 12.399-5.563 12.399-12.4v-12.399z"/><path d="m108.551 136.185h-7.86c-9.043 0-16.4-7.357-16.4-16.4v-14.399c0-1.104.896-2 2-2h36.661c1.104 0 2 .896 2 2v14.399c-.001 9.042-7.358 16.4-16.401 16.4zm-20.261-28.8v12.399c0 6.838 5.563 12.4 12.4 12.4h7.86c6.838 0 12.4-5.563 12.4-12.4v-12.399z"/><path d="m89.923 113.563h-22c-1.104 0-2-.896-2-2s.896-2 2-2h22c1.104 0 2 .896 2 2s-.896 2-2 2z"/></g><path d="m111.587 179.825h-1.867v-5.47c0-1.247-1.128-2.18-2.357-1.966-7.519 1.31-14.602 2.02-21.079 2.333-2.719.131-4.846 2.382-4.846 5.104h-.106v10.665h-6.773v-10.665-.01c0-2.727-2.147-4.968-4.87-5.105-9.14-.461-15.868-1.574-19.214-2.234-1.236-.244-2.379.703-2.379 1.963v5.386h-1.854c-14.972 0-27.109 12.137-27.109 27.109v24.612h119.563c0-9.166 0-15.498 0-24.612 0-14.973-12.137-27.11-27.109-27.11z" fill="#6bdddd"/><path d="m77.945 208.235c-1.87 0-3.387-1.516-3.387-3.387v-14.359h6.773v14.359c.001 1.871-1.516 3.387-3.386 3.387z" fill="#e0ebfc"/><path d="m138.696 233.545h-119.563c-1.104 0-2-.896-2-2v-24.611c0-16.001 12.979-29.028 28.962-29.108v-3.386c0-1.203.532-2.33 1.459-3.093.927-.761 2.137-1.065 3.307-.834 3.166.625 9.833 1.741 18.929 2.2 3.796.191 6.77 3.312 6.77 7.103v8.674h2.773v-8.664c0-.266.052-.519.146-.75.359-3.452 3.178-6.181 6.71-6.353 6.976-.336 13.984-1.111 20.834-2.305 1.177-.202 2.368.119 3.277.882.903.76 1.422 1.874 1.422 3.055v3.471c15.989.073 28.976 13.104 28.976 29.108v24.611c-.002 1.104-.897 2-2.002 2zm-117.563-4h115.563v-22.611c0-13.845-11.264-25.108-25.109-25.108h-1.866c-1.104 0-2-.896-2-2v-5.471c-7.024 1.226-14.2 2.02-21.34 2.364-1.649.08-2.942 1.444-2.942 3.106 0 .226-.037.443-.106.646v10.019c0 1.104-.896 2-2 2h-6.773c-1.104 0-2-.896-2-2v-10.664c0-1.668-1.305-3.033-2.971-3.118-9.348-.471-16.23-1.624-19.5-2.27l.007 5.388c0 1.104-.896 2-2 2h-1.854c-13.845 0-25.108 11.264-25.108 25.108v22.611z" fill="#3762cc"/><path d="m77.945 210.235c-2.971 0-5.387-2.416-5.387-5.387v-14.359c0-1.104.896-2 2-2h6.773c1.104 0 2 .896 2 2v14.359c.001 2.971-2.415 5.387-5.386 5.387zm-1.386-17.746v12.359c0 .765.622 1.387 1.387 1.387s1.387-.622 1.387-1.387v-12.359z" fill="#3762cc"/><path d="m16.653 80.964c-1.002 5.295-1.176 10.761-.435 16.202l1.241 9.102c2.595-1.837 5.763-2.929 9.195-2.929.111 0 .218.014.328.017v-4.865c0-3.103.297-6.136.829-9.087-4.624-2.517-8.287-5.487-11.158-8.44z" fill="#4671c6"/><path d="m17.459 108.269c-.271 0-.541-.055-.797-.165-.641-.279-1.091-.872-1.185-1.564l-1.24-9.102c-.761-5.576-.609-11.243.451-16.846.139-.733.674-1.328 1.389-1.543.713-.218 1.489-.014 2.011.521 3.101 3.19 6.693 5.907 10.68 8.076.757.412 1.165 1.264 1.013 2.111-.529 2.936-.798 5.873-.798 8.733v4.864c0 .536-.216 1.051-.599 1.427-.382.375-.906.576-1.437.573-.088-.002-.175-.007-.261-.014-.006 0-.011 0-.017 0-2.918 0-5.692.886-8.056 2.56-.342.244-.747.369-1.154.369zm.602-23.218c-.44 3.956-.395 7.927.14 11.846l.837 6.143c1.871-.883 3.876-1.431 5.945-1.623v-2.925c0-2.638.21-5.334.625-8.033-2.701-1.572-5.225-3.382-7.547-5.408z" fill="#3762cc"/><path d="m129.901 59.552c-2.14-2.789-5.784-3.961-9.148-2.942l-2.653.804c-.283 7.109-3.486 12.696-8.345 17.925 0 0 .597 7.164 3.844 12.171 3.628 6.715 7.967 9.144 17.277 15.847 2.925-.065 5.577.634 7.906 1.893l1.102-8.082c1.823-13.37-1.771-26.911-9.983-37.616z" fill="#4671c6"/><path d="m138.783 107.249c-.327 0-.655-.08-.951-.241-2.129-1.15-4.445-1.723-6.911-1.652-.438-.006-.86-.123-1.212-.377-1.255-.903-2.42-1.729-3.504-2.497-7.07-5.013-10.978-7.782-14.327-13.953-3.442-5.359-4.089-12.713-4.115-13.024-.047-.561.146-1.115.528-1.527 5.165-5.559 7.574-10.691 7.812-16.644.033-.851.603-1.587 1.418-1.834l2.652-.804c4.137-1.252 8.685.21 11.315 3.639 8.477 11.051 12.259 25.303 10.378 39.104l-1.102 8.082c-.089.65-.49 1.216-1.076 1.513-.284.143-.594.215-.905.215zm-7.265-5.895c1.954.027 3.842.36 5.643.994l.743-5.451c1.737-12.75-1.757-25.918-9.589-36.127-1.624-2.116-4.43-3.021-6.982-2.246l-1.328.402c-.565 6.053-3.186 11.534-8.156 17.087.263 1.944 1.121 6.849 3.43 10.407.029.045.057.092.082.139 2.914 5.396 6.338 7.824 13.159 12.66.937.664 1.934 1.372 2.998 2.135z" fill="#3762cc"/><path d="m78.93 176.401c-24.634 0-45.823-16.221-52.11-39.652-.056.001-.11.001-.165.001-9.842 0-17.849-7.942-17.849-17.705 0-9.204 7.115-16.791 16.177-17.629v-2.925c0-3.111.288-6.288.855-9.444.109-.604.489-1.125 1.032-1.413.543-.286 1.189-.309 1.749-.06.385.171.842.393 1.376.653 3.529 1.722 10.871 5.304 23.727 5.748 6.323.226 10.758-.334 14.314-.782.934-.117 1.582-.203 1.586-.203.009-.002.183-.025.479-.071 14.129-1.942 29.462-9.552 38.188-18.94.52-.56 1.312-.775 2.042-.554s1.272.837 1.396 1.59l.131.826c.408 2.614 1.092 6.991 3.419 10.58.029.045.057.091.082.138 1.662 3.077 3.892 5.7 6.815 8.019.679.546.976.759 4.605 3.368l4.738 3.408c4.607.07 8.926 1.863 12.225 5.092 3.425 3.351 5.311 7.825 5.311 12.6 0 9.763-8.007 17.705-17.849 17.705-.055 0-.109 0-.165-.001-6.286 23.431-27.476 39.651-52.109 39.651zm-50.574-43.744c.918 0 1.73.631 1.945 1.542 5.294 22.493 25.291 38.202 48.628 38.202s43.334-15.709 48.628-38.202c.231-.981 1.151-1.633 2.156-1.531.524.056 1.013.082 1.491.082 7.636 0 13.849-6.148 13.849-13.705 0-3.689-1.459-7.148-4.108-9.741-2.686-2.628-6.264-4.063-10.024-3.948-.438-.006-.86-.123-1.213-.377l-5.262-3.785c-3.712-2.668-4.016-2.886-4.768-3.49-3.324-2.636-5.88-5.64-7.801-9.174-1.948-3.031-2.899-6.353-3.45-9.068-9.556 8.72-24.207 15.555-37.747 17.416-.325.051-.531.078-.531.078-.002 0-.663.088-1.614.207-3.699.465-8.302 1.045-14.953.812-12.459-.431-20.087-3.639-24.208-5.603-.26 2.053-.392 4.103-.392 6.12v4.864c0 .536-.216 1.051-.599 1.427-.382.375-.906.576-1.437.573-.088-.002-.175-.007-.261-.014-.002 0-.005 0-.007 0-7.665 0-13.874 6.147-13.874 13.703 0 7.557 6.213 13.705 13.849 13.705.478 0 .966-.026 1.492-.082.072-.007.142-.011.211-.011z" fill="#3762cc"/><path d="m110.966 39.509c-3.871-3.554-7.767-6.384-11.66-8.593h.002c-10.316-5.616-21.248-7.297-31.175-6.581l.009-.003c-19.691.831-34.767 14.058-34.767 14.058l.005-.002c-12.185 9.272-20.622 20.806-23.788 25.51-.27.33-1.246 1.702-1.389 2.146-.326 1.016-.269 2.178.213 3.198 3.577 7.571 17.198 29.392 54.438 26.532 2.376-.183 7.03-.802 7.03-.802 20.248-2.578 48.993-18.416 48.228-39.253-.229-6.254-2.805-12.225-7.146-16.21z" fill="#4671c6"/><path d="m56.365 98.03c-33.797 0-46.537-21.118-49.758-27.934-.683-1.447-.796-3.146-.309-4.663.271-.844 1.363-2.305 1.666-2.699 3.147-4.672 11.727-16.423 24.13-25.883 1.054-.916 16.101-13.682 35.963-14.52.02-.001.039-.002.059-.002 11.358-.798 22.479 1.564 32.148 6.828 4.16 2.363 8.206 5.344 12.055 8.877 4.699 4.314 7.539 10.733 7.792 17.611.821 22.397-29.027 38.644-49.974 41.311-.182.023-4.727.627-7.13.813-2.299.177-4.513.261-6.642.261zm-46.276-31.311c-.158.546-.109 1.15.136 1.669 3.146 6.661 16.219 28.179 52.476 25.394 2.293-.177 6.875-.785 6.921-.791 19.897-2.533 47.2-17.909 46.492-37.197-.213-5.816-2.582-11.215-6.499-14.811-3.628-3.331-7.429-6.133-11.295-8.328-8.998-4.898-19.391-7.098-30.042-6.325-.06.004-.118.005-.177.005-18.131.816-32.361 12.665-33.353 13.511-.05.046-.102.091-.157.133-12.011 9.141-20.323 20.554-23.34 25.036-.034.052-.071.101-.11.148-.238.291-.884 1.229-1.052 1.556zm.018-.065c0 .002 0 .003-.001.005.001-.002.001-.003.001-.005z" fill="#3762cc"/></svg>